<?xml version="1.0" encoding="UTF-8"?><svg id="Layer_3" xmlns="http://www.w3.org/2000/svg" viewBox="0 0 664.62 107.51"><defs><style>.cls-1,.cls-2{fill:#fff;font-family:CinzelDecorative-Bold, 'Cinzel Decorative';}.cls-3,.cls-2{font-size:60px;}.cls-4{letter-spacing:0em;}.cls-4,.cls-5,.cls-6,.cls-7,.cls-8,.cls-9,.cls-10,.cls-11,.cls-12,.cls-13{font-size:48px;}.cls-6{letter-spacing:-.01em;}.cls-14{fill:#3b97d3;stroke:#3b97d3;}.cls-14,.cls-15{stroke-miterlimit:10;stroke-width:.25px;}.cls-7{letter-spacing:-.02em;}.cls-8{letter-spacing:-.02em;}.cls-9{letter-spacing:0em;}.cls-10{letter-spacing:-.02em;}.cls-11{letter-spacing:0em;}.cls-12{letter-spacing:-.01em;}.cls-15{fill:#d1d3d4;stroke:#d1d3d4;}.cls-13{letter-spacing:-.01em;}</style></defs><g><polygon class="cls-15" points="81.54 57.49 97.42 53.65 81.58 49.82 83.47 43.76 77.05 45.53 73.03 30.39 69.01 45.49 62.66 43.69 64.51 49.81 48.63 53.65 64.47 57.47 62.58 63.53 69 61.76 73.03 76.9 77.04 61.81 83.39 63.6 81.54 57.49"/><path class="cls-14" d="M99.51,15.69c-18.84-13.1-45.19-10.14-61.01,7.26l-5.59,.38-6.06,1.55,7.33,4.24-.13,7.41,1.01,4.61-2.32,7.16-.84,4.57,6.6,.78,3.67-3.49c3.55-3.37,7.78-7.09,12.32-8.93l9.81-2.63-3.9-1.72-4.81-2.12,2.81-1.34-5.62-.24,2.09-11.12-.24,9.2,9.24,.81-4.26,2.29,2.68,1.19,7.42-1.48,3.38-12.09,5.48,20.62,8.74-2.41-2.57,8.25,21.57,5.21-21.63,5.23,2.52,8.33-8.65-2.45-5.47,20.57-4.14-15.58-1.66-.79-8.3-1.87-.12,.03,.02-.06-1.7-.38,6.19,6.03-4.48-1.88c-4.46-1.87-9.25-2.81-14.08-2.75l-5.7,.07,2.12,1.3,.37,.23c2.83,1.75,4.94,4.43,5.98,7.59l-1.61-.17c-2.52-.26-4.93-1.16-7.02-2.6h0c-2.11-1.47-3.89-3.37-5.21-5.57l-1.39-2.33,.06,1.19c.26,4.9,1.82,9.65,4.5,13.77h0c.94,1.45,2.13,2.72,3.5,3.77l2.89,2.2-3.16,.49,2.9,1.76c3.23,1.96,6.65,3.58,10.21,4.84s7.21,1.78,10.91,1.61l4.75-.22-.49,.29c-2.44,1.43-5,2.64-7.65,3.61,3.34,.87,6.81,1.09,10.23,.65h.02c4.72-.61,9.21-2.4,13.05-5.2l7.6-5.59-1.38,2.76h0c-1.54,1.63-2.85,3.44-3.92,5.41l-1.54,2.84,2.86-2.12c.97-.72,2.01-1.35,3.08-1.93,2.14-1.16,4.35-3.12,5.9-4.73h0l1.89-2.44,1.69-2.55,3.04-5.7-1.27,4.08c-.71,2.27-1.17,4.61-1.37,6.98l-.02,.24s2.34-4.47,5.29-8.52l.19-.36c.67-1.23,1.8-2.19,2.3-3.49,.44-1.15,1.14-2.55,1.47-3.29l3.15-7.3-.58,2.42c-.78,3.26-1.08,6.62-.86,9.96l.06,.93,1.33-4.92c.09-.13,.72-2.12,.77-2.27,1.21-3.5,2.2-4.54,3-6.92,6.58-19.56-.41-41.39-17.24-53.09Z"/></g><text class="cls-1" transform="translate(176.57 70.48)"><tspan class="cls-6" x="0" y="0">a</tspan><tspan class="cls-11" x="33.79" y="0">n</tspan><tspan class="cls-7" x="75.12" y="0">d</tspan><tspan class="cls-9" x="113.9" y="0">e</tspan><tspan class="cls-13" x="144" y="0">r</tspan><tspan class="cls-9" x="179.23" y="0">e</tspan><tspan class="cls-12" x="209.33" y="0">r</tspan><tspan class="cls-10" x="244.51" y="0">’</tspan><tspan class="cls-5" x="254.69" y="0">s </tspan><tspan class="cls-3" x="294.43" y="0">G</tspan><tspan class="cls-4" x="346.09" y="0">u</tspan><tspan class="cls-5" x="385.07" y="0">i</tspan><tspan class="cls-8" x="403.59" y="0">d</tspan><tspan class="cls-5" x="442.38" y="0">e</tspan></text><text class="cls-2" transform="translate(126.56 69.64)"><tspan x="0" y="0">W</tspan></text></svg>