<svg xmlns="http://www.w3.org/2000/svg" viewBox="0 0 281 200">
    <path fill="#fefefe" d="M274.78,153.59a27.53,27.53,0,0,0-.93-3c-1.71-4.27-1.13-39.26-1.13-39.26s0-12.67-.58-30.9c-.35-11.2,1.57-25,3.1-33.94a8.34,8.34,0,0,1-3-8.09,11.87,11.87,0,0,1,.79-2.54c0-1.16.12-2.31.26-3.46-.82-5.25-1.12-10.74-3.65-15.42S262.79,9.2,259,5.79c-.08-.08-.13-.15-.2-.23-2.22-1.06-4.61-1.79-6.78-3a6.15,6.15,0,0,1-.84-.57h-221c-.78.52-1.59,1-2.35,1.57A4.18,4.18,0,0,1,25,4.24c-6.23,5.4-13.07,9-15.73,17.58a46.94,46.94,0,0,0-1.78,9.43,3.2,3.2,0,0,1,.1.42c.27,1.51.42,3,.57,4.54,0,0,.13.91.13,1a14.6,14.6,0,0,0,.55,1.93,4.61,4.61,0,0,1-1.47,4.95,5.55,5.55,0,0,1-2.49,3c1.51,9,3.34,22.38,3,33.33-.58,18.23-.58,30.9-.58,30.9s.58,35-1.13,39.26a27.88,27.88,0,0,0-1.09,3.65,4.78,4.78,0,0,1,3,3.17c1.31,4,.41,8.33-.78,12.49A4.68,4.68,0,0,1,7.5,171C8.64,183.88,17.62,192.75,29,197.68A4.75,4.75,0,0,1,30.83,199h215.8c1.94-.54,3.91-1,5.81-1.65a3.83,3.83,0,0,1,1.31-.86,4.61,4.61,0,0,1,2.42-1.31l.75-.19a3.88,3.88,0,0,1,1.06-.81c1.25-.62,2.55-1.18,3.79-1.85a17.12,17.12,0,0,1,1.71-1.4,3.17,3.17,0,0,1,.65-.36c.08-.09.16-.17.23-.26s.57-.83.57-.83a5.39,5.39,0,0,1,2.46-2.06c.45-.55.88-1.12,1.29-1.69l.1-.12a37.3,37.3,0,0,0,4.72-17.11,3,3,0,0,1,0-.31c-1.65-3.32-1.28-6.59-1.53-10.19A4.68,4.68,0,0,1,274.78,153.59Z"/>
    <path fill="#c53131" d="M275.28,101.4v2c.77-12.53,2.64-42.67,5.52-52l.21-.68-.6-.37a20.9,20.9,0,0,1-3.68-3.08,60.93,60.93,0,0,1,2.34-9.38l.12-.34L276.7,10l-1.08-.34c-2.52-.78-9.71-3.91-9.71-8V0H15.09V1.68c0,4.05-7,7.12-9.71,8L4.3,10,1.82,37.56l.12.34a61.53,61.53,0,0,1,2.34,9.36A21.05,21.05,0,0,1,.6,50.36l-.6.38.21.67c2.88,9.33,4.74,39.41,5.51,52v-2C5,113.87,3.09,139.25.21,148.59l-.21.68.6.37a20.9,20.9,0,0,1,3.68,3.08,59.8,59.8,0,0,1-2.34,9.38l-.12.34L4.3,190l1.08.34c2.7.84,9.71,3.91,9.71,8V200H265.91v-1.68c0-4,7-7.12,9.71-8l1.08-.34,2.48-27.58-.12-.34a61.53,61.53,0,0,1-2.34-9.36,21.05,21.05,0,0,1,3.68-3.1l.6-.38-.21-.67c-2.88-9.33-4.74-34.65-5.51-47.19m-3.84,62.1s.45,1.05,1,2.57a28.69,28.69,0,0,1-1.33,12.18c-2.95,8.6-10.16,14.89-20.88,18.39H30.68c-23-7.48-22.8-25.21-22.16-30.51.59-1.59,1.06-2.7,1.09-2.78a11.79,11.79,0,0,0-2.1-9.57c3.38-18.48,1.66-42,1.58-43.08V89.42c.09-1.17,1.81-24.74-1.57-43.23A12,12,0,0,0,9.56,36.5s-.45-1.06-1-2.57A28.69,28.69,0,0,1,9.87,21.75c3-8.6,10.16-14.9,20.89-18.39H250.32c23.05,7.48,22.8,25.21,22.16,30.51-.59,1.59-1.06,2.7-1.09,2.78a11.79,11.79,0,0,0,2.1,9.57c-3.38,18.48-1.66,42-1.58,43.08v21.28c-.09,1.17-1.81,24.74,1.57,43.23a12,12,0,0,0-2.05,9.69m7.41-112c-1.71,6-3,17.24-4,27.91a184.33,184.33,0,0,1,1.5-29.93,24.77,24.77,0,0,0,2.5,2m-5.72-14.31c.09-.2,1.13-2.66,2.12-5.71l.51,5.64A58.68,58.68,0,0,0,274,43.57a9.17,9.17,0,0,1-.89-6.35m.42-24.74,1.24,13.81c-.25,1.19-.59,2.43-1,3.62a29,29,0,0,0-1.55-8.55c-2-5.88-6.88-13.33-18.42-18h8.89c1.25,5.13,8,8.1,10.8,9.12M18.25,3.36h8.88C10.49,10.1,7.46,22.74,7.21,30c-.38-1.23-.74-2.52-1-3.75L7.45,12.48c2.79-1,9.55-4,10.8-9.12m-13,33.79.51-5.64c1,3,2,5.43,2.07,5.56A9.4,9.4,0,0,1,7,43.51a59.87,59.87,0,0,0-1.73-6.36M4.64,49.5A184.34,184.34,0,0,1,6.15,79.44c-1-10.67-2.29-21.88-4-27.91a22.88,22.88,0,0,0,2.49-2m-2.49,99c1.71-6,3-17.24,4-27.91a184.33,184.33,0,0,1-1.5,29.93,23.42,23.42,0,0,0-2.5-2m5.72,14.31c-.09.2-1.13,2.66-2.12,5.71l-.51-5.63A59.49,59.49,0,0,0,7,156.43a9.17,9.17,0,0,1,.89,6.35m-.42,24.74L6.21,173.71c.25-1.18.59-2.42,1-3.62a29,29,0,0,0,1.55,8.55c2,5.89,6.88,13.33,18.42,18H18.25c-1.25-5.13-8-8.1-10.8-9.12m255.3,9.12h-8.88c16.64-6.73,19.67-19.38,19.92-26.68.38,1.23.74,2.52,1,3.75l-1.24,13.81c-2.79,1-9.55,4-10.8,9.12m13-33.78-.51,5.63c-1-3-2-5.43-2.07-5.56a9.41,9.41,0,0,1,.85-6.44,60.72,60.72,0,0,0,1.73,6.37m.6-12.36a184.34,184.34,0,0,1-1.51-29.94c1,10.67,2.29,21.88,4,27.91a22.88,22.88,0,0,0-2.49,2"/>
</svg>